<?xml version="1.0" encoding="UTF-8"?>
<!DOCTYPE svg PUBLIC "-//W3C//DTD SVG 1.1//EN" "http://www.w3.org/Graphics/SVG/1.1/DTD/svg11.dtd">
<svg xmlns="http://www.w3.org/2000/svg" version="1.1" width="414px" height="393px" style="shape-rendering:geometricPrecision; text-rendering:geometricPrecision; image-rendering:optimizeQuality; fill-rule:evenodd; clip-rule:evenodd" xmlns:xlink="http://www.w3.org/1999/xlink">
<g><path style="opacity:1" fill="#0b192f" d="M -0.5,-0.5 C 137.5,-0.5 275.5,-0.5 413.5,-0.5C 413.5,130.5 413.5,261.5 413.5,392.5C 275.5,392.5 137.5,392.5 -0.5,392.5C -0.5,261.5 -0.5,130.5 -0.5,-0.5 Z"/></g>
<g><path style="opacity:1" fill="#833742" d="M 109.5,6.5 C 92.2388,5.83995 74.9055,5.50662 57.5,5.5C 40.1533,5.50047 23.1533,6.16713 6.5,7.5C 5.59603,6.79105 5.26269,5.79105 5.5,4.5C 40.5161,3.84002 75.1827,4.50669 109.5,6.5 Z"/></g>
<g><path style="opacity:1" fill="#fe5656" d="M 109.5,6.5 C 113.63,21.6503 116.797,36.9836 119,52.5C 122.231,34.1565 131.731,20.3231 147.5,11C 153.618,8.55362 159.952,6.88695 166.5,6C 181.5,5.33333 196.5,5.33333 211.5,6C 231.744,6.27102 246.244,15.4377 255,33.5C 257.534,40.1024 259.867,46.769 262,53.5C 265.242,37.1628 273.409,23.9961 286.5,14C 294.304,9.70501 302.637,7.03835 311.5,6C 327.5,5.33333 343.5,5.33333 359.5,6C 371.405,7.42217 381.905,11.9222 391,19.5C 398.376,30.682 402.376,43.0154 403,56.5C 403.5,165.499 403.667,274.499 403.5,383.5C 369.833,383.5 336.167,383.5 302.5,383.5C 302.833,294.998 302.499,206.665 301.5,118.5C 301.106,95.8291 290.439,88.3291 269.5,96C 264.357,101.016 261.523,107.183 261,114.5C 260.5,204.499 260.333,294.499 260.5,384.5C 226.5,384.5 192.5,384.5 158.5,384.5C 158.667,293.833 158.5,203.166 158,112.5C 157.076,99.7423 150.242,92.7423 137.5,91.5C 125.868,93.0594 119.368,99.7261 118,111.5C 117.5,202.499 117.333,293.499 117.5,384.5C 83.5,384.5 49.5,384.5 15.5,384.5C 15.6667,279.499 15.5,174.499 15,69.5C 14.2433,48.515 11.4099,27.8483 6.5,7.5C 23.1533,6.16713 40.1533,5.50047 57.5,5.5C 74.9055,5.50662 92.2388,5.83995 109.5,6.5 Z"/></g>
<g><path style="opacity:1" fill="#843843" d="M 301.5,118.5 C 302.499,206.665 302.833,294.998 302.5,383.5C 336.167,383.5 369.833,383.5 403.5,383.5C 369.671,384.498 335.671,384.832 301.5,384.5C 301.5,295.833 301.5,207.167 301.5,118.5 Z"/></g>
</svg>
